<mxfile host="Electron" modified="2024-03-08T22:55:10.625Z" agent="Mozilla/5.0 (Windows NT 10.0; Win64; x64) AppleWebKit/537.36 (KHTML, like Gecko) draw.io/23.1.5 Chrome/120.0.6099.109 Electron/28.1.0 Safari/537.36" etag="m_af6obJxlDbIB9aAfa-" version="23.1.5" type="device">
  <diagram name="Страница — 1" id="xjJfCi4V1hn__q_sd1GM">
    <mxGraphModel dx="2187" dy="797" grid="1" gridSize="10" guides="1" tooltips="1" connect="1" arrows="1" fold="1" page="1" pageScale="1" pageWidth="827" pageHeight="1169" math="0" shadow="0">
      <root>
        <mxCell id="0" />
        <mxCell id="1" parent="0" />
        <mxCell id="8n0H1YX45aauRk38pMrW-7" style="edgeStyle=orthogonalEdgeStyle;rounded=0;orthogonalLoop=1;jettySize=auto;html=1;exitX=0.5;exitY=1;exitDx=0;exitDy=0;entryX=0.5;entryY=0;entryDx=0;entryDy=0;" edge="1" parent="1" source="r5rxblQXVQjleuNsjHHE-2" target="r5rxblQXVQjleuNsjHHE-18">
          <mxGeometry relative="1" as="geometry" />
        </mxCell>
        <mxCell id="r5rxblQXVQjleuNsjHHE-2" value="Furniture" style="rounded=1;whiteSpace=wrap;html=1;" parent="1" vertex="1">
          <mxGeometry x="200" y="160" width="120" height="60" as="geometry" />
        </mxCell>
        <mxCell id="r5rxblQXVQjleuNsjHHE-5" value="" style="strokeWidth=2;html=1;shape=mxgraph.flowchart.annotation_2;align=left;labelPosition=right;pointerEvents=1;rotation=-180;" parent="1" vertex="1">
          <mxGeometry x="160" y="140" width="40" height="100" as="geometry" />
        </mxCell>
        <mxCell id="r5rxblQXVQjleuNsjHHE-6" value="Id" style="ellipse;whiteSpace=wrap;html=1;aspect=fixed;" parent="1" vertex="1">
          <mxGeometry x="100" y="110" width="60" height="60" as="geometry" />
        </mxCell>
        <mxCell id="r5rxblQXVQjleuNsjHHE-7" value="Name" style="ellipse;whiteSpace=wrap;html=1;aspect=fixed;" parent="1" vertex="1">
          <mxGeometry x="100" y="210" width="60" height="60" as="geometry" />
        </mxCell>
        <mxCell id="r5rxblQXVQjleuNsjHHE-10" value="" style="strokeWidth=2;html=1;shape=mxgraph.flowchart.annotation_2;align=left;labelPosition=right;pointerEvents=1;" parent="1" vertex="1">
          <mxGeometry x="50" y="140" width="50" height="100" as="geometry" />
        </mxCell>
        <mxCell id="r5rxblQXVQjleuNsjHHE-11" value="" style="strokeWidth=2;html=1;shape=mxgraph.flowchart.annotation_2;align=left;labelPosition=right;pointerEvents=1;rotation=-180;" parent="1" vertex="1">
          <mxGeometry y="140" width="50" height="100" as="geometry" />
        </mxCell>
        <mxCell id="r5rxblQXVQjleuNsjHHE-12" value="Price&lt;span style=&quot;color: rgba(0, 0, 0, 0); font-family: monospace; font-size: 0px; text-align: start; text-wrap: nowrap;&quot;&gt;%3CmxGraphModel%3E%3Croot%3E%3CmxCell%20id%3D%220%22%2F%3E%3CmxCell%20id%3D%221%22%20parent%3D%220%22%2F%3E%3CmxCell%20id%3D%222%22%20value%3D%22Id%22%20style%3D%22ellipse%3BwhiteSpace%3Dwrap%3Bhtml%3D1%3Baspect%3Dfixed%3B%22%20vertex%3D%221%22%20parent%3D%221%22%3E%3CmxGeometry%20x%3D%22100%22%20y%3D%22110%22%20width%3D%2260%22%20height%3D%2260%22%20as%3D%22geometry%22%2F%3E%3C%2FmxCell%3E%3C%2Froot%3E%3C%2FmxGraphModel%3E&lt;/span&gt;" style="ellipse;whiteSpace=wrap;html=1;aspect=fixed;" parent="1" vertex="1">
          <mxGeometry x="-60" y="110" width="60" height="60" as="geometry" />
        </mxCell>
        <mxCell id="r5rxblQXVQjleuNsjHHE-13" value="Image" style="ellipse;whiteSpace=wrap;html=1;aspect=fixed;" parent="1" vertex="1">
          <mxGeometry x="-60" y="210" width="60" height="60" as="geometry" />
        </mxCell>
        <mxCell id="r5rxblQXVQjleuNsjHHE-14" value="" style="strokeWidth=2;html=1;shape=mxgraph.flowchart.annotation_2;align=left;labelPosition=right;pointerEvents=1;" parent="1" vertex="1">
          <mxGeometry x="-110" y="140" width="50" height="100" as="geometry" />
        </mxCell>
        <mxCell id="r5rxblQXVQjleuNsjHHE-15" value="" style="strokeWidth=2;html=1;shape=mxgraph.flowchart.annotation_2;align=left;labelPosition=right;pointerEvents=1;rotation=-179;" parent="1" vertex="1">
          <mxGeometry x="-150" y="140" width="50" height="100" as="geometry" />
        </mxCell>
        <mxCell id="r5rxblQXVQjleuNsjHHE-16" value="CategoryId" style="ellipse;whiteSpace=wrap;html=1;aspect=fixed;" parent="1" vertex="1">
          <mxGeometry x="-210" y="110" width="60" height="60" as="geometry" />
        </mxCell>
        <mxCell id="r5rxblQXVQjleuNsjHHE-17" value="Description" style="ellipse;whiteSpace=wrap;html=1;aspect=fixed;" parent="1" vertex="1">
          <mxGeometry x="-210" y="210" width="60" height="60" as="geometry" />
        </mxCell>
        <mxCell id="r5rxblQXVQjleuNsjHHE-18" value="Category" style="rounded=1;whiteSpace=wrap;html=1;" parent="1" vertex="1">
          <mxGeometry x="200" y="400" width="120" height="60" as="geometry" />
        </mxCell>
        <mxCell id="r5rxblQXVQjleuNsjHHE-19" value="" style="strokeWidth=2;html=1;shape=mxgraph.flowchart.annotation_2;align=left;labelPosition=right;pointerEvents=1;rotation=-180;" parent="1" vertex="1">
          <mxGeometry x="160" y="380" width="40" height="100" as="geometry" />
        </mxCell>
        <mxCell id="r5rxblQXVQjleuNsjHHE-20" value="Id" style="ellipse;whiteSpace=wrap;html=1;aspect=fixed;" parent="1" vertex="1">
          <mxGeometry x="100" y="350" width="60" height="60" as="geometry" />
        </mxCell>
        <mxCell id="r5rxblQXVQjleuNsjHHE-21" value="Name" style="ellipse;whiteSpace=wrap;html=1;aspect=fixed;" parent="1" vertex="1">
          <mxGeometry x="100" y="450" width="60" height="60" as="geometry" />
        </mxCell>
        <mxCell id="r5rxblQXVQjleuNsjHHE-22" value="" style="strokeWidth=2;html=1;shape=mxgraph.flowchart.annotation_2;align=left;labelPosition=right;pointerEvents=1;" parent="1" vertex="1">
          <mxGeometry x="50" y="380" width="50" height="100" as="geometry" />
        </mxCell>
        <mxCell id="r5rxblQXVQjleuNsjHHE-30" value="Busket" style="rounded=1;whiteSpace=wrap;html=1;" parent="1" vertex="1">
          <mxGeometry x="440" y="380" width="120" height="60" as="geometry" />
        </mxCell>
        <mxCell id="r5rxblQXVQjleuNsjHHE-38" value="Image" style="ellipse;whiteSpace=wrap;html=1;aspect=fixed;" parent="1" vertex="1">
          <mxGeometry x="-10" y="400" width="60" height="60" as="geometry" />
        </mxCell>
        <mxCell id="r5rxblQXVQjleuNsjHHE-31" value="" style="strokeWidth=2;html=1;shape=mxgraph.flowchart.annotation_2;align=left;labelPosition=right;pointerEvents=1;rotation=-360;" parent="1" vertex="1">
          <mxGeometry x="560" y="360" width="60" height="100" as="geometry" />
        </mxCell>
        <mxCell id="r5rxblQXVQjleuNsjHHE-44" value="Id" style="ellipse;whiteSpace=wrap;html=1;aspect=fixed;" parent="1" vertex="1">
          <mxGeometry x="620" y="330" width="60" height="60" as="geometry" />
        </mxCell>
        <mxCell id="r5rxblQXVQjleuNsjHHE-45" value="UserId" style="ellipse;whiteSpace=wrap;html=1;aspect=fixed;" parent="1" vertex="1">
          <mxGeometry x="620" y="430" width="60" height="60" as="geometry" />
        </mxCell>
        <mxCell id="r5rxblQXVQjleuNsjHHE-53" value="" style="strokeWidth=2;html=1;shape=mxgraph.flowchart.annotation_2;align=left;labelPosition=right;pointerEvents=1;" parent="1" vertex="1">
          <mxGeometry x="-260" y="140" width="50" height="100" as="geometry" />
        </mxCell>
        <mxCell id="r5rxblQXVQjleuNsjHHE-54" value="OrderId" style="ellipse;whiteSpace=wrap;html=1;aspect=fixed;" parent="1" vertex="1">
          <mxGeometry x="-320" y="160" width="60" height="60" as="geometry" />
        </mxCell>
        <mxCell id="r5rxblQXVQjleuNsjHHE-57" value="" style="group" parent="1" vertex="1" connectable="0">
          <mxGeometry x="440" y="110" width="400" height="160" as="geometry" />
        </mxCell>
        <mxCell id="r5rxblQXVQjleuNsjHHE-47" value="Order" style="rounded=1;whiteSpace=wrap;html=1;" parent="r5rxblQXVQjleuNsjHHE-57" vertex="1">
          <mxGeometry y="50" width="120" height="60" as="geometry" />
        </mxCell>
        <mxCell id="r5rxblQXVQjleuNsjHHE-48" value="" style="strokeWidth=2;html=1;shape=mxgraph.flowchart.annotation_2;align=left;labelPosition=right;pointerEvents=1;rotation=-360;" parent="r5rxblQXVQjleuNsjHHE-57" vertex="1">
          <mxGeometry x="120" y="30" width="60" height="100" as="geometry" />
        </mxCell>
        <mxCell id="r5rxblQXVQjleuNsjHHE-49" value="Id" style="ellipse;whiteSpace=wrap;html=1;aspect=fixed;" parent="r5rxblQXVQjleuNsjHHE-57" vertex="1">
          <mxGeometry x="180" width="60" height="60" as="geometry" />
        </mxCell>
        <mxCell id="r5rxblQXVQjleuNsjHHE-50" value="FurnitureId" style="ellipse;whiteSpace=wrap;html=1;aspect=fixed;" parent="r5rxblQXVQjleuNsjHHE-57" vertex="1">
          <mxGeometry x="180" y="100" width="60" height="60" as="geometry" />
        </mxCell>
        <mxCell id="r5rxblQXVQjleuNsjHHE-51" value="" style="strokeWidth=2;html=1;shape=mxgraph.flowchart.annotation_2;align=left;labelPosition=right;pointerEvents=1;rotation=-180;" parent="r5rxblQXVQjleuNsjHHE-57" vertex="1">
          <mxGeometry x="240" y="30" width="50" height="100" as="geometry" />
        </mxCell>
        <mxCell id="r5rxblQXVQjleuNsjHHE-52" value="Quantity" style="ellipse;whiteSpace=wrap;html=1;aspect=fixed;" parent="r5rxblQXVQjleuNsjHHE-57" vertex="1">
          <mxGeometry x="340" width="60" height="60" as="geometry" />
        </mxCell>
        <mxCell id="r5rxblQXVQjleuNsjHHE-55" value="" style="strokeWidth=2;html=1;shape=mxgraph.flowchart.annotation_2;align=left;labelPosition=right;pointerEvents=1;" parent="r5rxblQXVQjleuNsjHHE-57" vertex="1">
          <mxGeometry x="290" y="30" width="50" height="100" as="geometry" />
        </mxCell>
        <mxCell id="r5rxblQXVQjleuNsjHHE-56" value="BadketId" style="ellipse;whiteSpace=wrap;html=1;aspect=fixed;" parent="r5rxblQXVQjleuNsjHHE-57" vertex="1">
          <mxGeometry x="340" y="100" width="60" height="60" as="geometry" />
        </mxCell>
        <mxCell id="r5rxblQXVQjleuNsjHHE-77" value="" style="strokeWidth=2;html=1;shape=mxgraph.flowchart.annotation_2;align=left;labelPosition=right;pointerEvents=1;direction=west;" parent="1" vertex="1">
          <mxGeometry x="840" y="140" width="50" height="100" as="geometry" />
        </mxCell>
        <mxCell id="r5rxblQXVQjleuNsjHHE-79" value="UserAccountId" style="ellipse;whiteSpace=wrap;html=1;aspect=fixed;" parent="1" vertex="1">
          <mxGeometry x="890" y="150" width="80" height="80" as="geometry" />
        </mxCell>
        <mxCell id="8n0H1YX45aauRk38pMrW-1" value="UserAccount" style="rounded=1;whiteSpace=wrap;html=1;" vertex="1" parent="1">
          <mxGeometry x="441.25" y="520" width="120" height="60" as="geometry" />
        </mxCell>
        <mxCell id="8n0H1YX45aauRk38pMrW-2" value="" style="strokeWidth=2;html=1;shape=mxgraph.flowchart.annotation_2;align=left;labelPosition=right;pointerEvents=1;direction=south;" vertex="1" parent="1">
          <mxGeometry x="451.25" y="580" width="100" height="50" as="geometry" />
        </mxCell>
        <mxCell id="8n0H1YX45aauRk38pMrW-3" value="Id" style="ellipse;whiteSpace=wrap;html=1;aspect=fixed;rotation=0;" vertex="1" parent="1">
          <mxGeometry x="421.25" y="620" width="60" height="60" as="geometry" />
        </mxCell>
        <mxCell id="r5rxblQXVQjleuNsjHHE-71" value="FullName" style="ellipse;whiteSpace=wrap;html=1;aspect=fixed;rotation=0;" parent="1" vertex="1">
          <mxGeometry x="521.25" y="622.5" width="55" height="55" as="geometry" />
        </mxCell>
        <mxCell id="r5rxblQXVQjleuNsjHHE-74" value="Email" style="ellipse;whiteSpace=wrap;html=1;aspect=fixed;rotation=0;" parent="1" vertex="1">
          <mxGeometry x="518.75" y="775" width="60" height="60" as="geometry" />
        </mxCell>
        <mxCell id="r5rxblQXVQjleuNsjHHE-75" value="OrderId" style="ellipse;whiteSpace=wrap;html=1;aspect=fixed;rotation=0;" parent="1" vertex="1">
          <mxGeometry x="421.25" y="775" width="60" height="60" as="geometry" />
        </mxCell>
        <mxCell id="8n0H1YX45aauRk38pMrW-4" value="" style="strokeWidth=2;html=1;shape=mxgraph.flowchart.annotation_2;align=left;labelPosition=right;pointerEvents=1;direction=north;" vertex="1" parent="1">
          <mxGeometry x="451.25" y="680" width="100" height="50" as="geometry" />
        </mxCell>
        <mxCell id="8n0H1YX45aauRk38pMrW-5" value="" style="strokeWidth=2;html=1;shape=mxgraph.flowchart.annotation_2;align=left;labelPosition=right;pointerEvents=1;direction=south;" vertex="1" parent="1">
          <mxGeometry x="451.25" y="725" width="100" height="50" as="geometry" />
        </mxCell>
        <mxCell id="8n0H1YX45aauRk38pMrW-6" value="" style="endArrow=classic;startArrow=classic;html=1;rounded=0;exitX=0.5;exitY=0;exitDx=0;exitDy=0;entryX=0.5;entryY=1;entryDx=0;entryDy=0;" edge="1" parent="1" source="8n0H1YX45aauRk38pMrW-1" target="r5rxblQXVQjleuNsjHHE-30">
          <mxGeometry width="50" height="50" relative="1" as="geometry">
            <mxPoint x="470" y="490" as="sourcePoint" />
            <mxPoint x="520" y="440" as="targetPoint" />
          </mxGeometry>
        </mxCell>
        <mxCell id="8n0H1YX45aauRk38pMrW-8" style="edgeStyle=orthogonalEdgeStyle;rounded=0;orthogonalLoop=1;jettySize=auto;html=1;exitX=0.5;exitY=1;exitDx=0;exitDy=0;entryX=0.5;entryY=0;entryDx=0;entryDy=0;" edge="1" parent="1" source="r5rxblQXVQjleuNsjHHE-47" target="r5rxblQXVQjleuNsjHHE-30">
          <mxGeometry relative="1" as="geometry" />
        </mxCell>
        <mxCell id="8n0H1YX45aauRk38pMrW-10" value="" style="endArrow=classic;startArrow=classic;html=1;rounded=0;exitX=1;exitY=0.5;exitDx=0;exitDy=0;entryX=0;entryY=0.5;entryDx=0;entryDy=0;" edge="1" parent="1" source="r5rxblQXVQjleuNsjHHE-2" target="r5rxblQXVQjleuNsjHHE-47">
          <mxGeometry width="50" height="50" relative="1" as="geometry">
            <mxPoint x="360" y="210" as="sourcePoint" />
            <mxPoint x="410" y="160" as="targetPoint" />
          </mxGeometry>
        </mxCell>
      </root>
    </mxGraphModel>
  </diagram>
</mxfile>
